<svg width="24" height="24" viewBox="0 0 24 24" fill="none" xmlns="http://www.w3.org/2000/svg">
<path fill-rule="evenodd" clip-rule="evenodd" d="M5.11689 8.75169C5.53019 8.72414 5.88757 9.03684 5.91512 9.45014L6.37506 16.3493C6.46492 17.6971 6.52895 18.6349 6.66951 19.3406C6.80586 20.025 6.9962 20.3873 7.26961 20.6431C7.54302 20.8989 7.91718 21.0647 8.60918 21.1552C9.32258 21.2485 10.2626 21.25 11.6134 21.25H12.3868C13.7376 21.25 14.6776 21.2485 15.391 21.1552C16.083 21.0647 16.4572 20.8989 16.7306 20.6431C17.004 20.3873 17.1943 20.025 17.3307 19.3406C17.4713 18.6349 17.5353 17.6971 17.6251 16.3493L18.0851 9.45014C18.1126 9.03684 18.47 8.72414 18.8833 8.75169C19.2966 8.77924 19.6093 9.13662 19.5818 9.54992L19.1183 16.5017C19.0328 17.7844 18.9638 18.8206 18.8018 19.6336C18.6334 20.4789 18.347 21.185 17.7554 21.7385C17.1638 22.2919 16.4402 22.5308 15.5856 22.6425C14.7635 22.7501 13.7251 22.7501 12.4395 22.75H11.5607C10.2751 22.7501 9.23667 22.7501 8.41463 22.6425C7.55998 22.5308 6.83643 22.2919 6.24483 21.7385C5.65324 21.185 5.36682 20.4789 5.19842 19.6336C5.03645 18.8205 4.96739 17.7844 4.88189 16.5017L4.41844 9.54992C4.39089 9.13662 4.7036 8.77924 5.11689 8.75169Z" fill="white"/>
<path fill-rule="evenodd" clip-rule="evenodd" d="M10.3553 3.25004L10.3094 3.25002C10.093 3.24988 9.90445 3.24976 9.72643 3.27819C9.02313 3.39049 8.41453 3.82915 8.08559 4.46084C8.00232 4.62074 7.94282 4.79964 7.87452 5.00496L7.86 5.04858L7.76291 5.33984C7.74392 5.39681 7.73863 5.41251 7.73402 5.42524C7.55891 5.90936 7.10488 6.23659 6.59023 6.24964C6.5767 6.24998 6.56013 6.25004 6.50008 6.25004H3.5C3.08579 6.25004 2.75 6.58582 2.75 7.00004C2.75 7.41425 3.08579 7.75004 3.5 7.75004H6.50865H6.52539H17.4748H17.4915H20.5001C20.9143 7.75004 21.2501 7.41425 21.2501 7.00004C21.2501 6.58582 20.9143 6.25004 20.5001 6.25004H17.5001C17.44 6.25004 17.4235 6.24998 17.4099 6.24964C16.8953 6.23659 16.4413 5.90933 16.2661 5.42522C16.2616 5.41258 16.2562 5.39653 16.2373 5.33984L16.1402 5.04858L16.1256 5.00494C16.0573 4.79961 15.9978 4.62073 15.9146 4.46084C15.5856 3.82915 14.977 3.39049 14.2737 3.27819C14.0957 3.24976 13.9072 3.24988 13.6908 3.25002L13.6448 3.25004H10.3553ZM9.14458 5.93548C9.10531 6.04404 9.05966 6.14902 9.00815 6.25004H14.992C14.9405 6.14902 14.8949 6.04405 14.8556 5.9355L14.8169 5.82216L14.7171 5.52292C14.626 5.2494 14.605 5.19363 14.5842 5.15364C14.4745 4.94307 14.2716 4.79686 14.0372 4.75942C13.9927 4.75231 13.9331 4.75004 13.6448 4.75004H10.3553C10.067 4.75004 10.0075 4.75231 9.96296 4.75942C9.72853 4.79686 9.52566 4.94307 9.41601 5.15364C9.39519 5.19363 9.37419 5.24942 9.28302 5.52292L9.18322 5.82234C9.1682 5.86742 9.1565 5.90251 9.14458 5.93548Z" fill="white"/>
</svg>
