<svg width="24" height="24" viewBox="0 0 24 24" fill="none" xmlns="http://www.w3.org/2000/svg">
<path fill-rule="evenodd" clip-rule="evenodd" d="M16.5231 4.37728L4.6625 16.2378C4.66214 16.2382 4.66179 16.2386 4.66143 16.2389C4.4923 16.4101 4.30463 16.7098 4.13458 17.1214C3.96812 17.5243 3.83707 17.9894 3.75739 18.4483C3.67715 18.9104 3.65403 19.3371 3.68526 19.6666C3.71323 19.9616 3.77468 20.0788 3.78839 20.1049C3.78957 20.1072 3.7904 20.1088 3.79081 20.1097C3.80207 20.1168 3.83517 20.1356 3.90265 20.1574C3.99756 20.1881 4.13058 20.2148 4.30259 20.23C4.64737 20.2604 5.08422 20.2387 5.54959 20.1623C6.01275 20.0864 6.47799 19.9606 6.87841 19.7987C7.28872 19.6328 7.58194 19.4487 7.74689 19.2822L7.74938 19.2797L19.4334 7.59563C19.4655 7.53341 19.5067 7.47509 19.5566 7.42272C19.9436 7.01635 20.1564 6.47484 20.1496 5.91385L20.1496 5.91375C20.1427 5.35271 19.9168 4.81652 19.52 4.41972L20.0503 3.88938L19.52 4.41971C19.1232 4.02291 18.587 3.79698 18.026 3.79014C17.4677 3.78334 16.9287 3.99398 16.5231 4.37728ZM20.8408 8.23148C20.8038 8.31909 20.7499 8.40043 20.68 8.4703L8.81252 20.3378C8.81202 20.3383 8.81153 20.3388 8.81103 20.3393C8.44611 20.7071 7.94625 20.9849 7.4407 21.1894C6.92455 21.3981 6.35041 21.551 5.79233 21.6426C5.23645 21.7337 4.67017 21.7682 4.17089 21.7242C3.7097 21.6836 3.15396 21.5641 2.77129 21.2113C2.36595 20.8375 2.23525 20.2649 2.19196 19.8082C2.14475 19.3102 2.1835 18.7445 2.27951 18.1916C2.37607 17.6355 2.53564 17.0632 2.74824 16.5486C2.95689 16.0436 3.23628 15.5462 3.59687 15.1822L3.59936 15.1797L15.4694 3.30967C15.4737 3.30536 15.478 3.3011 15.4825 3.2969C16.1723 2.63991 17.0917 2.27864 18.0442 2.29025L18.0442 2.29025C18.9968 2.30187 19.907 2.68545 20.5806 3.35905C21.2542 4.03263 21.6379 4.94292 21.6494 5.89552L20.8995 5.90463L21.6494 5.89542C21.6494 5.89545 21.6494 5.89548 21.6494 5.89552C21.6599 6.74765 21.3718 7.57312 20.8408 8.23148Z" fill="white"/>
<path fill-rule="evenodd" clip-rule="evenodd" d="M11.25 21C11.25 20.5858 11.5858 20.25 12 20.25H21C21.4142 20.25 21.75 20.5858 21.75 21C21.75 21.4142 21.4142 21.75 21 21.75H12C11.5858 21.75 11.25 21.4142 11.25 21Z" fill="white"/>
</svg>
